/* XPM */
static char *graphic[] = {
/* width height num_colors chars_per_pixel */
"16 16 208 2", 
/* colors */
"   c None",
".  c None",
"X  c None",
"o  c None",
"O  c None",
"+  c #43B4E4",
"@  c #46BAE8",
"#  c None",
"$  c None",
"%  c #1A75BB",
"&  c #4BC0ED",
"*  c #47BAEA",
"=  c #4BC0EC",
"-  c #46B8E8",
";  c None",
":  c None",
">  c #3AA6DB",
",  c None",
"<  c None",
"1  c None",
"2  c #0C60AD",
"3  c None",
"4  c None",
"5  c None",
"6  c None",
"7  c #44B5E6",
"8  c None",
"9  c #0250A2",
"0  c None",
"q  c #349CD5",
"w  c None",
"e  c None",
"r  c None",
"t  c None",
"y  c None",
"u  c #3FAEE2",
"i  c #4AC1ED",
"p  c None",
"a  c None",
"s  c None",
"d  c #36A2D8",
"f  c None",
"g  c None",
"h  c #298BC9",
"j  c None",
"k  c #0959A9",
"l  c #0E61AE",
"z  c #43B6E5",
"x  c #3FAEE0",
"c  c #298BC9",
"v  c #166EB5",
"b  c #47BAE8",
"n  c None",
"m  c None",
"M  c None",
"N  c #0555A6",
"B  c None",
"V  c #44B6E6",
"C  c #4BBFED",
"Z  c None",
"A  c #47BAE9",
"S  c #2687C6",
"D  c #3FACE0",
"F  c None",
"G  c #48BCE9",
"H  c None",
"J  c None",
"K  c None",
"L  c None",
"P  c #4DC2EE",
"I  c None",
"U  c None",
"Y  c None",
"T  c None",
"R  c #0756A7",
"E  c None",
"W  c #1168B1",
"Q  c #0E63AE",
"!  c #4BC1ED",
"~  c #4ABFEC",
"^  c #339BD4",
"/  c #1064B0",
"(  c None",
")  c #0F63AF",
"_  c #0758A7",
"`  c None",
"'  c #0758A8",
"]  c #4BC1ED",
"[  c #1064B0",
"{  c None",
"}  c None",
"|  c None",
" . c None",
".. c None",
"X. c None",
"o. c #298CCA",
"O. c None",
"+. c None",
"@. c #0E61AE",
"#. c None",
"$. c #3DABDE",
"%. c #0655A6",
"&. c #36A0D8",
"*. c None",
"=. c None",
"-. c None",
";. c None",
":. c None",
">. c None",
",. c #2687C7",
"<. c None",
"1. c #1E7BBE",
"2. c #4CC3EF",
"3. c None",
"4. c None",
"5. c None",
"6. c None",
"7. c None",
"8. c None",
"9. c #298CC9",
"0. c #3FAEE2",
"q. c #48BDEA",
"w. c None",
"e. c #4BC1ED",
"r. c None",
"t. c None",
"y. c None",
"u. c #4CC1ED",
"i. c #47BBEA",
"p. c #0D60AE",
"a. c None",
"s. c None",
"d. c None",
"f. c None",
"g. c None",
"h. c #4CC3EE",
"j. c #024FA2",
"k. c None",
"l. c None",
"z. c #1A73BA",
"x. c None",
"c. c #359DD6",
"v. c None",
"b. c None",
"n. c #207EC0",
"m. c #4AC0EC",
"M. c #47B9E8",
"N. c #0E62AD",
"B. c #217EC1",
"V. c None",
"C. c None",
"Z. c #146BB5",
"A. c #0E62AD",
"S. c #0351A3",
"D. c #47BBE9",
"F. c None",
"G. c None",
"H. c #4BC0ED",
"J. c None",
"K. c None",
"L. c None",
"P. c #136AB4",
"I. c None",
"U. c None",
"Y. c #0351A3",
"T. c None",
"R. c None",
"E. c None",
"W. c None",
"Q. c #3CA8DD",
"!. c #3EABDF",
"~. c None",
"^. c None",
"/. c None",
"(. c None",
"). c #4DC3EE",
"_. c None",
"`. c None",
"'. c None",
"]. c None",
"[. c #4BC0ED",
"{. c None",
"}. c #0757A7",
"|. c None",
" X c None",
".X c #0656A5",
"XX c None",
"oX c #339CD5",
"OX c None",
"+X c #3199D2",
"@X c #47BAE8",
"#X c #0656A6",
"$X c #095BA9",
"%X c #2C8FCD",
"&X c None",
"*X c None",
"=X c #156BB4",
"-X c #0654A6",
";X c #45B7E6",
":X c #1C78BD",
">X c None",
",X c #0656A5",
"<X c None",
"1X c None",
"2X c None",
"3X c #1C78BD",
"4X c None",
"5X c None",
/* pixels */
"      X B | 2.).h.P ^.3.U.      ",
"    XXL m.e.& ! [.i = ~ X.U     ",
"  J E A G -.H |.6 } <Xq.D.* v.  ",
"1XE.z V # 1X    3 V.O.l.T.7 + r.",
"F.x u 1 *XH.C < t.u.] e x.$ 0. .",
"0 p t M - @ M.b ;XO i.@XXXR.Q.> ",
"j j `.( !.I :.D $.7.4.a.  6 d &.",
"4 5 ;.=.q K.5.^ c.+.oXf     *.+X",
"W.g G.Y c (.9.h ` w.o.<.    ~.%X",
"r Z f.L.:Xk.1.3XJ.&X>.{.  o S ,.",
"    4X; / m 8 W [ N.A.l y.b.n.B.",
"  8.z.I.-X.   2XC.N %.s...d.% , ",
"  { Z.P._.s      Xg.w n F =Xv 6.",
"  f./.Q p.K : 4Xf.'.#.2 @.) OX  ",
"    T 5Xk _ R .X#X,X}.' $X:     ",
"      X y >XS.j.9 Y.].a T       "
};
