/* XPM */
static char *graphic[] = {
/* width height num_colors chars_per_pixel */
"32 32 565 2", 
/* colors */
"   c None",
".  c None",
"X  c #43B3E4",
"o  c None",
"O  c None",
"+  c #1368B3",
"@  c #46BAE8",
"#  c #2586C6",
"$  c #4ABEEC",
"%  c None",
"&  c None",
"*  c #1A73B9",
"=  c #4BC0EC",
"-  c #3CA8DD",
";  c None",
":  c None",
">  c #1872BA",
",  c None",
"<  c #4ABEEC",
"1  c #3199D2",
"2  c #1C78BC",
"3  c None",
"4  c None",
"5  c #48BDEA",
"6  c None",
"7  c #4BC0ED",
"8  c #4AC1EC",
"9  c #48BBE9",
"0  c None",
"q  c #3AA5DB",
"w  c #46BAE8",
"e  c #3FAFE1",
"r  c #0351A3",
"t  c #40AFE1",
"y  c None",
"u  c #136AB4",
"i  c #146AB4",
"p  c None",
"a  c #3BA7DC",
"s  c None",
"d  c #0351A3",
"f  c #48BBE9",
"g  c #0F64AF",
"h  c #004DA0",
"j  c None",
"k  c #4BC0ED",
"l  c #4BC0EC",
"z  c None",
"x  c #1267B2",
"c  c #136AB3",
"v  c #0C5FAD",
"b  c #4BC0EC",
"n  c None",
"m  c #136AB3",
"M  c #0656A6",
"N  c #4BC0EC",
"B  c #3FADDF",
"V  c #46BAE8",
"C  c #1F7DC1",
"Z  c None",
"A  c #004DA1",
"S  c #4CC2ED",
"D  c None",
"F  c #0451A3",
"G  c None",
"H  c #3DAADE",
"J  c None",
"K  c None",
"L  c #3199D3",
"P  c None",
"I  c None",
"U  c None",
"Y  c #38A2D9",
"T  c None",
"R  c None",
"E  c #2889C9",
"W  c #2585C6",
"Q  c #0351A3",
"!  c #0451A3",
"~  c #4DC3EE",
"^  c None",
"/  c None",
"(  c None",
")  c #2587C7",
"_  c #1F7DC0",
"`  c None",
"'  c #4DC4EE",
"]  c #4DC3EF",
"[  c #329BD4",
"{  c #166DB6",
"}  c #0F64B0",
"|  c None",
" . c #0351A3",
".. c #4DC3EF",
"X. c None",
"o. c #0351A3",
"O. c None",
"+. c None",
"@. c #1C77BC",
"#. c #4BC2ED",
"$. c #45B7E7",
"%. c None",
"&. c None",
"*. c #2B90CD",
"=. c None",
"-. c None",
";. c None",
":. c None",
">. c None",
",. c #4DC3EF",
"<. c None",
"1. c #3AA6DB",
"2. c #4BC2EE",
"3. c None",
"4. c #44B5E6",
"5. c #3CA9DD",
"6. c #1F7DC0",
"7. c #48BCEA",
"8. c #49BDEA",
"9. c #3DADE0",
"0. c None",
"q. c None",
"w. c #3DAADE",
"e. c #0D5FAC",
"r. c None",
"t. c #4DC4EF",
"y. c None",
"u. c #42B4E4",
"i. c None",
"p. c None",
"a. c None",
"s. c #4BBFEB",
"d. c None",
"f. c None",
"g. c None",
"h. c #45B7E6",
"j. c #0656A6",
"k. c None",
"l. c #47BAE8",
"z. c None",
"x. c None",
"c. c #49BFEC",
"v. c #48BCE9",
"b. c #2485C5",
"n. c None",
"m. c None",
"M. c #3AA6DB",
"N. c None",
"B. c #166FB7",
"V. c #45B7E6",
"C. c None",
"Z. c None",
"A. c None",
"S. c #4CC2ED",
"D. c None",
"F. c None",
"G. c #166FB7",
"H. c #0656A6",
"J. c #47BAE8",
"K. c None",
"L. c None",
"P. c None",
"I. c #2D92CE",
"U. c #0555A6",
"Y. c #0656A6",
"T. c None",
"R. c #0656A6",
"E. c #4BBFEC",
"W. c None",
"Q. c #45B7E7",
"!. c #3196D0",
"~. c #0656A6",
"^. c #4DC2EF",
"/. c None",
"(. c None",
"). c #0656A6",
"_. c None",
"`. c #40AFE1",
"'. c #48BCEA",
"]. c #1269B3",
"[. c None",
"{. c None",
"}. c None",
"|. c None",
" X c None",
".X c #49BDEB",
"XX c None",
"oX c None",
"OX c #3098D2",
"+X c None",
"@X c None",
"#X c #3198D3",
"$X c #0656A7",
"%X c None",
"&X c None",
"*X c #2B8ECC",
"=X c None",
"-X c #207DC1",
";X c None",
":X c None",
">X c None",
",X c None",
"<X c #1369B4",
"1X c None",
"2X c #0D5FAD",
"3X c #0756A6",
"4X c None",
"5X c #146AB4",
"6X c #146AB4",
"7X c None",
"8X c None",
"9X c None",
"0X c #095BA9",
"qX c None",
"wX c #47BAE9",
"eX c None",
"rX c None",
"tX c #095BA9",
"yX c None",
"uX c None",
"iX c None",
"pX c #0858A9",
"aX c #4CC3ED",
"sX c #095BA9",
"dX c #49BEEB",
"fX c #45B7E6",
"gX c #1974BA",
"hX c #37A1D8",
"jX c None",
"kX c #4ABFEC",
"lX c #46B9E8",
"zX c None",
"xX c None",
"cX c None",
"vX c None",
"bX c #3BA8DC",
"nX c None",
"mX c #3198D2",
"MX c None",
"NX c None",
"BX c None",
"VX c None",
"CX c #4CC2EE",
"ZX c #45B7E7",
"AX c None",
"SX c None",
"DX c #207DC1",
"FX c None",
"GX c None",
"HX c None",
"JX c None",
"KX c #4ABFEB",
"LX c None",
"PX c None",
"IX c None",
"UX c #3198D3",
"YX c #2E93CF",
"TX c None",
"RX c #48BCE9",
"EX c None",
"WX c None",
"QX c #359FD6",
"!X c #43B3E3",
"~X c None",
"^X c None",
"/X c None",
"(X c None",
")X c #0D60AD",
"_X c #0B5FAB",
"`X c None",
"'X c #3EADE0",
"]X c #4BC1ED",
"[X c #1369B3",
"{X c #4ABFEC",
"}X c #44B8E6",
"|X c #43B4E5",
" o c #2281C3",
".o c None",
"Xo c None",
"oo c #40B0E1",
"Oo c #0B5BA9",
"+o c #45B8E7",
"@o c #48BCE9",
"#o c #085AA9",
"$o c #48BCE9",
"%o c #44B6E6",
"&o c #2B8FCD",
"*o c #42B3E4",
"=o c None",
"-o c None",
";o c #339BD4",
":o c #2C90CD",
">o c #2D92CE",
",o c None",
"<o c None",
"1o c #48BCEA",
"2o c #44B6E6",
"3o c #3198D2",
"4o c #0C60AD",
"5o c None",
"6o c None",
"7o c None",
"8o c #156FB6",
"9o c #49BCEA",
"0o c None",
"qo c #085AA9",
"wo c None",
"eo c #2588C7",
"ro c #1C77BC",
"to c #42B3E4",
"yo c None",
"uo c None",
"io c #0C60AD",
"po c None",
"ao c None",
"so c #1A74BA",
"do c None",
"fo c None",
"go c #41B1E3",
"ho c #48BCEA",
"jo c #3AA6DC",
"ko c None",
"lo c #37A0D7",
"zo c #3198D2",
"xo c #2D92CE",
"co c #004CA0",
"vo c None",
"bo c #4BC1ED",
"no c None",
"mo c None",
"Mo c #37A0D7",
"No c None",
"Bo c #1F7CBF",
"Vo c #3BAADE",
"Co c None",
"Zo c #166EB7",
"Ao c #0D60AC",
"So c #38A3D9",
"Do c #36A0D7",
"Fo c #359FD7",
"Go c None",
"Ho c None",
"Jo c #207EC1",
"Ko c #40B0E2",
"Lo c #1A74BA",
"Po c #1369B3",
"Io c None",
"Uo c #0D60AE",
"Yo c #329AD3",
"To c #3BA8DC",
"Ro c #2C8FCC",
"Eo c #1268B3",
"Wo c None",
"Qo c #1C78BD",
"!o c #2687C6",
"~o c None",
"^o c #4DC4EF",
"/o c None",
"(o c #2C8FCC",
")o c None",
"_o c None",
"`o c None",
"'o c None",
"]o c #45B6E7",
"[o c None",
"{o c #1268B2",
"}o c #288AC9",
"|o c #1A74BB",
" O c None",
".O c #3FAFE2",
"XO c #0350A3",
"oO c #45B8E7",
"OO c None",
"+O c None",
"@O c #4BC1ED",
"#O c #36A0D8",
"$O c #0350A3",
"%O c #44B6E6",
"&O c None",
"*O c None",
"=O c #0A5BAA",
"-O c #3FADE0",
";O c None",
":O c None",
">O c #2B8FCC",
",O c #4BC1ED",
"<O c #3BA8DD",
"1O c None",
"2O c #44B6E6",
"3O c None",
"4O c #3097D2",
"5O c None",
"6O c None",
"7O c None",
"8O c #3BA8DD",
"9O c None",
"0O c None",
"qO c None",
"wO c None",
"eO c #4BC1EE",
"rO c #2687C7",
"tO c #1065B0",
"yO c None",
"uO c None",
"iO c None",
"pO c None",
"aO c None",
"sO c #4DC3EE",
"dO c #4ABEEC",
"fO c None",
"gO c None",
"hO c None",
"jO c None",
"kO c None",
"lO c None",
"zO c None",
"xO c None",
"cO c None",
"vO c None",
"bO c #3097D2",
"nO c None",
"mO c None",
"MO c #0D60AE",
"NO c None",
"BO c None",
"VO c #166EB7",
"CO c #0D60AC",
"ZO c None",
"AO c #40B0E2",
"SO c None",
"DO c None",
"FO c None",
"GO c #2B8FCD",
"HO c None",
"JO c #1973B9",
"KO c #0655A6",
"LO c #1973B9",
"PO c None",
"IO c None",
"UO c None",
"YO c #0655A6",
"TO c None",
"RO c None",
"EO c #1469B3",
"WO c #0655A7",
"QO c #4AC0EC",
"!O c #49BCEA",
"~O c None",
"^O c #0655A6",
"/O c None",
"(O c #359FD5",
")O c #0757A6",
"_O c #0A5CA9",
"`O c None",
"'O c #4DC3EE",
"]O c #0655A6",
"[O c #0C5FAC",
"{O c #49BCEB",
"}O c #48BBE9",
"|O c #0D60AD",
" + c None",
".+ c None",
"X+ c #0D60AD",
"o+ c None",
"O+ c None",
"++ c None",
"@+ c None",
"#+ c #2B90CD",
"$+ c None",
"%+ c #1065B1",
"&+ c #0859A8",
"*+ c None",
"=+ c #4CC3EF",
"-+ c None",
";+ c None",
":+ c #40B0E2",
">+ c #37A0D7",
",+ c #2281C3",
"<+ c None",
"1+ c None",
"2+ c #1A73BA",
"3+ c None",
"4+ c None",
"5+ c None",
"6+ c #40B0E3",
"7+ c #3BA7DC",
"8+ c None",
"9+ c #2281C3",
"0+ c #47B9E8",
"q+ c #43B3E4",
"w+ c #1973BA",
"e+ c #4BC0ED",
"r+ c None",
"t+ c None",
"y+ c None",
"u+ c #45B6E6",
"i+ c #49BDE9",
"p+ c None",
"a+ c None",
"s+ c #2688C7",
"d+ c None",
"f+ c #3EADE0",
"g+ c #136AB4",
"h+ c None",
"j+ c None",
"k+ c #37A3D8",
"l+ c None",
"z+ c #3097D2",
"x+ c #2A8ECB",
"c+ c None",
"v+ c #1A75BA",
"b+ c #4CC1ED",
"n+ c None",
"m+ c None",
"M+ c #2688C8",
"N+ c #095AA9",
"B+ c #4CC1ED",
"V+ c None",
"C+ c #4EC5EF",
"Z+ c None",
"A+ c #3098D2",
"S+ c #207EC1",
"D+ c None",
"F+ c None",
"G+ c #2A8ECC",
"H+ c #4CC1ED",
"J+ c #3EAEDF",
"K+ c #45B6E6",
"L+ c None",
"P+ c #37A0D8",
"I+ c None",
"U+ c None",
"Y+ c #4ABEEB",
"T+ c None",
"R+ c None",
"E+ c #41B0E2",
"W+ c #2889C9",
"Q+ c #369FD8",
"!+ c None",
"~+ c #1065B0",
"^+ c #2686C7",
"/+ c #1065B0",
"(+ c None",
")+ c None",
"_+ c None",
"`+ c None",
"'+ c None",
"]+ c None",
"[+ c #3FADDF",
"{+ c None",
"}+ c #3197D2",
"|+ c None",
" @ c None",
".@ c None",
"X@ c #359FD7",
"o@ c #0857A7",
"O@ c None",
"+@ c None",
"@@ c #349ED6",
"#@ c None",
"$@ c #2C8FCC",
"%@ c None",
"&@ c None",
"*@ c None",
"=@ c None",
/* pixels */
"                      *+. aO3+t.C+' +XK.I yO                    ",
"                `XL.do'O=+..~ ,.^o,.~ ] =+S voko#@              ",
"            #@5+P S.eOCXCXCX,O@Ob+2.#.CXCXCXb+7 ,X_+            ",
"          R+3.dOc.KXY+kX= 8 <.[.;O<o(+e+QO< {X{X$ dXj           ",
"        W.7.8.!O.X1oi+%XSO`X           +LX O9o{O.X5 }O+@o       ",
"       +.+w V J.l.NOzO                      ;XDO@ wX0+lXD+      ",
"    r+j+V.fX}XoOBX_.                          `X;.Q.ZXfX]ojO    ",
"    g.toX *o!XJ 5O                  #@^ #@      #@p.q+|Xu.XoSX  ",
"   +.O6+KoJX;+:Oh+xOxOxOxOh+zO` r+uXaXsO^.T.P.TO  r+4XAOgoE+m+  ",
"  a.'X[+9.cO`oVXk N N N N bo]Xs.GX9Xl H+H+B+b E.z   /OJ+B f+-O +",
"z.iXno5.woqO  6 RXhohohohohoho@ov.%.nX9 $ohof '.-o    G H w.Vo`+",
"rXRO:.t+CoAX  D.u+K+u+h.%o2o4.2O%OZ+6O&O.++o$./.      *O1.joq fo",
"mofOkO% x.    / e :+ooC.jOU OO`.:+t FOvXPX+Op+#@        gOY Sok+",
"POL+/OPO0.    q.8O- bX(.    Z.To- a >.7+<OM.7O          0 (OX@@@",
"EXhO0okO`     IO>+hXMoAX3OX.QX#OP+lod.Q+P+DoFop         BO[ ;oYo",
"f.; K _.#@    )+OXL #X`oA+3ozoL 1 [ol+}+UXmX!.(         vO4Oz+bO",
"&X/oT o+_.    =oGO:o&oF+Ro:o:o$@I.++!+(o#+*.>O9O        s >oYXxo",
":X#@  a+XX    & !orO^+T eorOrOs+yocXpO}.Ho) M+:         A.x+*XG+",
"8+i.  s ,o    R _ S+JouO=XDXS+-X0OMXTX&.4 |+/X          iOE }oW+",
"c+c+          Noso|o2+uO=.v+|oLo> mO-+, ,oy (X{.        WXb.# W ",
"              |.EO6X<X)oz.F.u 6X5X].x FXeXEo[X~OHO    y. o9+,+HX",
"          #@  @X4oX+)X @  )oIoMOX+X+X+|OX+X+X+e.-.    n Bo6.C +.",
"      *@I+.@HOWoWOR.U.)o    *@<+o@j.]O).~.KO)OUOjX  N.@.ro2 Qo*@",
"    ~o_oLOJO{+8Xn.y+qXz.        NXm.$+O n+IX@+5O  z.4+w+gX* U+  ",
"    *@8oB.G.ZozX                                #@Go{ G.VOlO*@  ",
"      %@g+c Po{oT+z.                          ~o5o+ m Poi 1+    ",
"      o '+%+/+~+g r.oX                      >X^X} /+~+tO.o      ",
"        #@d+AoCOX+v _X]+O@~o          1XV+| [OioX+2XUoD o       ",
"          c+6o_OsX=O=O0X#opX&@`OZ ZOxX&+qotX=O=ON+Oo1O          ",
"              uowO3XY.$X$X).]OH.YO^O]O$X$X$XH.M =@O.            ",
"                z.nOO+! d XO .o.o.o.$OQ r F ~Xk.c+              ",
"                    c+7XpoyX3 A h co7o X'oaoo                   "
};
